<?xml version="1.0" encoding="UTF-8" standalone="no"?>
<svg
   xmlns:dc="http://purl.org/dc/elements/1.1/"
   xmlns:cc="http://creativecommons.org/ns#"
   xmlns:rdf="http://www.w3.org/1999/02/22-rdf-syntax-ns#"
   xmlns:svg="http://www.w3.org/2000/svg"
   xmlns="http://www.w3.org/2000/svg"
   xmlns:sodipodi="http://sodipodi.sourceforge.net/DTD/sodipodi-0.dtd"
   xmlns:inkscape="http://www.inkscape.org/namespaces/inkscape"
   width="64px"
   height="64px"
   viewBox="0 0 64 64"
   version="1.1"
   id="svg2"
   inkscape:version="0.91 r"
   sodipodi:docname="admin.svg">
  <metadata
     id="metadata15">
    <rdf:RDF>
      <cc:Work
         rdf:about="">
        <dc:format>image/svg+xml</dc:format>
        <dc:type
           rdf:resource="http://purl.org/dc/dcmitype/StillImage" />
        <dc:title></dc:title>
      </cc:Work>
    </rdf:RDF>
  </metadata>
  <defs
     id="defs13" />
  <sodipodi:namedview
     pagecolor="#ffffff"
     bordercolor="#666666"
     borderopacity="1"
     objecttolerance="10"
     gridtolerance="10"
     guidetolerance="10"
     inkscape:pageopacity="0"
     inkscape:pageshadow="2"
     inkscape:window-width="1280"
     inkscape:window-height="724"
     id="namedview11"
     showgrid="false"
     inkscape:zoom="3.6875"
     inkscape:cx="-11.38983"
     inkscape:cy="32"
     inkscape:window-x="0"
     inkscape:window-y="24"
     inkscape:window-maximized="1"
     inkscape:current-layer="svg2" />
  <path
     inkscape:connector-curvature="0"
     id="path7"
     d="m 44.363281,25.433594 c 0,-8.828125 -5.59375,-15.988282 -12.496093,-15.988282 -6.898438,0 -12.492188,7.160157 -12.492188,15.988282 0,8.832031 5.59375,15.988281 12.492188,15.988281 6.902343,0 12.496093,-7.15625 12.496093,-15.988281 z m 0,0"
     style="fill:#23aede;fill-opacity:1;fill-rule:nonzero;stroke:none" />
  <path
     inkscape:connector-curvature="0"
     id="path9"
     d="M 42.820312,39.660156 C 40.625,44.773438 36.429688,47.957031 31.867188,47.957031 27.316406,47.949219 23.125,44.769531 20.933594,39.664062 11.207031,43.054688 4.765625,50.636719 4.363281,59.160156 l 55,0 c -0.398437,-8.519531 -6.828125,-16.101562 -16.542969,-19.5 z m 0,0"
     style="fill:#23aede;fill-opacity:1;fill-rule:nonzero;stroke:none" />
</svg>
