<?xml version="1.0" encoding="UTF-8" standalone="no"?>
<svg
   xmlns:osb="http://www.openswatchbook.org/uri/2009/osb"
   xmlns:dc="http://purl.org/dc/elements/1.1/"
   xmlns:cc="http://creativecommons.org/ns#"
   xmlns:rdf="http://www.w3.org/1999/02/22-rdf-syntax-ns#"
   xmlns:svg="http://www.w3.org/2000/svg"
   xmlns="http://www.w3.org/2000/svg"
   xmlns:sodipodi="http://sodipodi.sourceforge.net/DTD/sodipodi-0.dtd"
   xmlns:inkscape="http://www.inkscape.org/namespaces/inkscape"
   width="64px"
   height="64px"
   viewBox="0 0 64 64"
   version="1.1"
   id="svg2"
   inkscape:version="0.91 r"
   sodipodi:docname="rename.svg">
  <metadata
     id="metadata15">
    <rdf:RDF>
      <cc:Work
         rdf:about="">
        <dc:format>image/svg+xml</dc:format>
        <dc:type
           rdf:resource="http://purl.org/dc/dcmitype/StillImage" />
        <dc:title />
      </cc:Work>
    </rdf:RDF>
  </metadata>
  <defs
     id="defs13">
    <linearGradient
       osb:paint="solid"
       id="linearGradient5606">
      <stop
         id="stop5608" />
    </linearGradient>
  </defs>
  <sodipodi:namedview
     pagecolor="#ffffff"
     bordercolor="#666666"
     borderopacity="1"
     objecttolerance="10"
     gridtolerance="10"
     guidetolerance="10"
     inkscape:pageopacity="0"
     inkscape:pageshadow="2"
     inkscape:window-width="1280"
     inkscape:window-height="724"
     id="namedview11"
     showgrid="false"
     inkscape:zoom="3.6875"
     inkscape:cx="-39.543914"
     inkscape:cy="32"
     inkscape:window-x="0"
     inkscape:window-y="24"
     inkscape:window-maximized="1"
     inkscape:current-layer="svg2" />
  <path
     inkscape:connector-curvature="0"
     style="fill:none;fill-opacity:1;fill-rule:nonzero;stroke:#23aede;stroke-width:2.5;stroke-linecap:butt;stroke-linejoin:miter;stroke-miterlimit:4;stroke-dasharray:none;stroke-opacity:1"
     d="m 35.36566,7.8311971 c -3.027007,0 -5.521062,2.7855139 -6.016543,6.4662219 l 23.966245,0 C 52.819881,10.616711 50.325825,7.8311971 47.298817,7.8311971 Z m 0,0"
     id="path4274" />
  <path
     inkscape:connector-curvature="0"
     style="fill:none;fill-opacity:1;fill-rule:nonzero;stroke:#23aede;stroke-width:2.5;stroke-opacity:1;stroke-miterlimit:4;stroke-dasharray:none"
     d="m 10.337108,17.435531 43.596971,0 c 3.447902,0 6.2435,3.06612 6.2435,6.849756 l 0,24.023154 c 0,3.783639 -2.795598,6.849756 -6.2435,6.849756 l -43.596971,0 c -3.4479031,0 -6.2434996,-3.066117 -6.2434996,-6.849756 l 0,-24.023154 c 0,-3.783636 2.7955965,-6.849756 6.2434996,-6.849756 z m 0,0"
     id="path4276" />
  <g
     style="fill:#666666;fill-opacity:1;enable-background:new"
     id="g4342"
     transform="matrix(1.7622352,0,0,1.7622352,19.886469,24.855801)">
    <g
       transform="translate(-521.0002,-109)"
       inkscape:label="actions"
       id="layer12"
       style="fill:#666666;fill-opacity:1">
      <path
         id="path11643-3-2-2"
         d="m 523.0002,109 0,2 6,0 c 0.42816,0 1,0.61414 1,1 l 0,1 -5,0 c -0.91927,0 -1.7356,0.38396 -2.25,0.96875 -0.5144,0.58479 -0.75639,1.31063 -0.75,2.03125 0.006,0.72062 0.26893,1.45271 0.78125,2.03125 0.51232,0.57854 1.31047,0.96875 2.21875,0.96875 l 5,0 1,0 1,0 0,-1 0,-1 0,-5 c 9e-5,-1.63434 -1.3198,-3 -3,-3 l -6,0 z m 2,6 5,0 0,2 -5,0 c -0.39787,0 -0.56691,-0.10979 -0.71875,-0.28125 -0.15184,-0.17146 -0.27877,-0.43937 -0.28125,-0.71875 -0.002,-0.27938 0.10467,-0.55354 0.25,-0.71875 0.14533,-0.16521 0.32764,-0.28125 0.75,-0.28125 z"
         inkscape:connector-curvature="0"
         style="fill:#666666;fill-opacity:1" />
      <path
         sodipodi:nodetypes="ccccc"
         id="path4484-2"
         d="M 533.00019,124.00001 537,120.99998 l -3.99982,-2.99994 c 0,0 -1.8e-4,5.99994 -3e-5,6.00001 z"
         inkscape:connector-curvature="0"
         style="fill:#666666;fill-opacity:1" />
      <path
         id="path4486-0"
         d="m 521.9375,120 0,2 13.0625,0 0,-2 -13.0625,0 z"
         inkscape:connector-curvature="0"
         style="color:#000000;fill:#666666;fill-opacity:1;stroke-width:2" />
    </g>
  </g>
</svg>
