<?xml version="1.0" encoding="UTF-8" standalone="no"?>
<svg
   xmlns:dc="http://purl.org/dc/elements/1.1/"
   xmlns:cc="http://creativecommons.org/ns#"
   xmlns:rdf="http://www.w3.org/1999/02/22-rdf-syntax-ns#"
   xmlns:svg="http://www.w3.org/2000/svg"
   xmlns="http://www.w3.org/2000/svg"
   xmlns:sodipodi="http://sodipodi.sourceforge.net/DTD/sodipodi-0.dtd"
   xmlns:inkscape="http://www.inkscape.org/namespaces/inkscape"
   width="64px"
   height="64px"
   viewBox="0 0 64 64"
   version="1.1"
   id="svg2"
   inkscape:version="0.91 r"
   sodipodi:docname="search.svg">
  <metadata
     id="metadata15">
    <rdf:RDF>
      <cc:Work
         rdf:about="">
        <dc:format>image/svg+xml</dc:format>
        <dc:type
           rdf:resource="http://purl.org/dc/dcmitype/StillImage" />
        <dc:title />
      </cc:Work>
    </rdf:RDF>
  </metadata>
  <defs
     id="defs13" />
  <sodipodi:namedview
     pagecolor="#ffffff"
     bordercolor="#666666"
     borderopacity="1"
     objecttolerance="10"
     gridtolerance="10"
     guidetolerance="10"
     inkscape:pageopacity="0"
     inkscape:pageshadow="2"
     inkscape:window-width="1280"
     inkscape:window-height="724"
     id="namedview11"
     showgrid="false"
     inkscape:zoom="3.6875"
     inkscape:cx="-11.38983"
     inkscape:cy="32"
     inkscape:window-x="0"
     inkscape:window-y="24"
     inkscape:window-maximized="1"
     inkscape:current-layer="svg2" />
  <g
     transform="matrix(3.4858757,0,0,3.4858757,5.1977399,-3607.7033)"
     id="layer1-6"
     inkscape:label="Capa 1"
     style="fill:#23aede;fill-opacity:1">
    <path
       id="rect4179"
       transform="translate(0,1036.3622)"
       d="M 6,2 C 3.7839952,2 2,3.7839952 2,6 2,8.2160048 3.7839952,10 6,10 6.926351,10 7.7667544,9.675125 8.4433594,9.1503906 L 13.292969,14 14,13.292969 9.1503906,8.4433594 C 9.675125,7.7667544 10,6.926351 10,6 10,3.7839952 8.2160048,2 6,2 Z M 6,3 C 7.6620073,3 9,4.3379927 9,6 9,6.6493939 8.7914132,7.246354 8.4433594,7.7363281 8.4243114,7.763143 8.3988056,7.7844006 8.3789062,7.8105469 8.2155621,8.0252113 8.0252113,8.2155621 7.8105469,8.3789062 7.7843927,8.3988077 7.7631759,8.424288 7.7363281,8.4433594 7.246354,8.7914132 6.6493939,9 6,9 4.3379927,9 3,7.6620073 3,6 3,4.3379927 4.3379927,3 6,3 Z"
       style="color:#000000;clip-rule:nonzero;display:inline;overflow:visible;visibility:visible;opacity:1;isolation:auto;mix-blend-mode:normal;color-interpolation:sRGB;color-interpolation-filters:linearRGB;solid-color:#000000;solid-opacity:1;fill:#23aede;fill-opacity:1;fill-rule:nonzero;stroke:none;stroke-width:1;stroke-linecap:butt;stroke-linejoin:miter;stroke-miterlimit:4;stroke-dasharray:none;stroke-dashoffset:0;stroke-opacity:1;color-rendering:auto;image-rendering:auto;shape-rendering:auto;text-rendering:auto;enable-background:accumulate"
       inkscape:connector-curvature="0" />
  </g>
</svg>
