<?xml version="1.0" encoding="UTF-8" standalone="no"?>
<svg
   xmlns:osb="http://www.openswatchbook.org/uri/2009/osb"
   xmlns:dc="http://purl.org/dc/elements/1.1/"
   xmlns:cc="http://creativecommons.org/ns#"
   xmlns:rdf="http://www.w3.org/1999/02/22-rdf-syntax-ns#"
   xmlns:svg="http://www.w3.org/2000/svg"
   xmlns="http://www.w3.org/2000/svg"
   xmlns:sodipodi="http://sodipodi.sourceforge.net/DTD/sodipodi-0.dtd"
   xmlns:inkscape="http://www.inkscape.org/namespaces/inkscape"
   width="64px"
   height="64px"
   viewBox="0 0 64 64"
   version="1.1"
   id="svg2"
   inkscape:version="0.91 r"
   sodipodi:docname="upload.svg">
  <metadata
     id="metadata15">
    <rdf:RDF>
      <cc:Work
         rdf:about="">
        <dc:format>image/svg+xml</dc:format>
        <dc:type
           rdf:resource="http://purl.org/dc/dcmitype/StillImage" />
        <dc:title></dc:title>
      </cc:Work>
    </rdf:RDF>
  </metadata>
  <defs
     id="defs13">
    <linearGradient
       osb:paint="solid"
       id="linearGradient5606">
      <stop
         id="stop5608" />
    </linearGradient>
  </defs>
  <sodipodi:namedview
     pagecolor="#ffffff"
     bordercolor="#666666"
     borderopacity="1"
     objecttolerance="10"
     gridtolerance="10"
     guidetolerance="10"
     inkscape:pageopacity="0"
     inkscape:pageshadow="2"
     inkscape:window-width="1280"
     inkscape:window-height="724"
     id="namedview11"
     showgrid="false"
     inkscape:zoom="3.6875"
     inkscape:cx="31.322034"
     inkscape:cy="32"
     inkscape:window-x="0"
     inkscape:window-y="24"
     inkscape:window-maximized="1"
     inkscape:current-layer="svg2" />
  <path
     inkscape:connector-curvature="0"
     style="fill:#23aede;fill-opacity:1;fill-rule:nonzero;stroke:none"
     d="m 32.005145,56.657376 c -6.404166,0 -12.765359,-2.63617 -17.292696,-7.163506 -4.520172,-4.527336 -7.1491803,-10.88853 -7.1491803,-17.28554 0,-6.404175 2.6290083,-12.765369 7.1491803,-17.292705 4.527337,-4.520171 10.88853,-7.163506 17.292696,-7.163506 6.397008,0 12.758198,2.643335 17.292708,7.163506 4.52734,4.527336 7.16351,10.88853 7.16351,17.292705 0,6.39701 -2.63617,12.758204 -7.16351,17.28554 -4.53451,4.527336 -10.8957,7.163506 -17.292708,7.163506 z m 0,-4.892675 c 10.236648,0.0072 19.570708,-9.312558 19.570708,-19.556371 0,-10.243815 -9.33406,-19.563536 -19.570708,-19.563536 -10.243805,0 -19.556363,9.319721 -19.556363,19.563536 0,10.23665 9.312558,19.556371 19.556363,19.556371 z m -4.885502,-4.88551 0,-12.228105 -9.778186,0 14.670858,-17.113617 14.670858,17.113617 -9.77818,0 0,12.228105 z m 0,0"
     id="path4408" />
</svg>
